<?xml version="1.0" encoding="UTF-8"?>
<svg xmlns="http://www.w3.org/2000/svg" xmlns:xlink="http://www.w3.org/1999/xlink" width="3001" height="3001" viewBox="0 0 3001 3001">

<path fill-rule="nonzero" fill="rgb(0%, 0%, 0%)" fill-opacity="1" d="M 1994.699219 1488.039062 C 2065.46875 1488.039062 2129.550781 1516.730469 2175.941406 1563.109375 C 2222.320312 1609.488281 2251.011719 1673.578125 2251.011719 1744.351562 C 2251.011719 1815.121094 2222.320312 1879.210938 2175.929688 1925.589844 C 2129.550781 1971.980469 2065.46875 2000.671875 1994.699219 2000.671875 C 1923.921875 2000.671875 1859.828125 1971.96875 1813.449219 1925.589844 C 1767.070312 1879.210938 1738.378906 1815.121094 1738.378906 1744.351562 C 1738.378906 1673.578125 1767.070312 1609.488281 1813.449219 1563.109375 C 1840.25 1536.328125 1872.941406 1515.449219 1909.410156 1502.578125 L 1903.960938 1467.441406 C 1860 1481.828125 1820.640625 1506.390625 1788.691406 1538.351562 C 1735.96875 1591.058594 1703.359375 1663.898438 1703.359375 1744.351562 C 1703.359375 1757.289062 1704.191406 1770.011719 1705.820312 1782.410156 C 1707.460938 1794.851562 1709.949219 1807.351562 1713.28125 1819.769531 C 1714.921875 1825.910156 1711.269531 1832.238281 1705.121094 1833.878906 C 1698.980469 1835.519531 1692.660156 1831.859375 1691.011719 1825.71875 C 1687.488281 1812.589844 1684.820312 1799.101562 1683.011719 1785.378906 C 1681.210938 1771.601562 1680.289062 1757.871094 1680.289062 1744.351562 C 1680.289062 1657.539062 1715.480469 1578.929688 1772.371094 1522.03125 C 1807.730469 1486.679688 1851.480469 1459.699219 1900.378906 1444.339844 L 1890.320312 1379.5 C 1749.230469 1441.539062 1693.03125 1525.570312 1645.5 1596.640625 C 1607.828125 1652.96875 1575.339844 1701.570312 1511.820312 1727.199219 C 1512.609375 1732.808594 1513.019531 1738.53125 1513.019531 1744.359375 C 1513.019531 1777.820312 1499.441406 1808.160156 1477.480469 1830.121094 L 1477.25 1830.351562 C 1472.539062 1835.039062 1467.449219 1839.328125 1462.03125 1843.199219 L 1473.140625 1862.429688 L 1509.71875 1862.429688 C 1516.089844 1862.429688 1521.261719 1867.601562 1521.261719 1873.96875 C 1521.261719 1880.339844 1516.089844 1885.511719 1509.71875 1885.511719 L 1466.511719 1885.511719 L 1466.511719 1885.480469 C 1462.550781 1885.46875 1458.691406 1883.421875 1456.558594 1879.738281 L 1442.121094 1854.730469 C 1426.761719 1861.769531 1409.671875 1865.699219 1391.679688 1865.699219 C 1385.140625 1865.699219 1378.570312 1865.148438 1372.058594 1864.089844 C 1365.878906 1863.089844 1359.808594 1861.601562 1353.941406 1859.679688 L 1280.148438 1847.660156 C 1260.621094 1891.96875 1228.878906 1929.710938 1189.21875 1956.589844 C 1148.199219 1984.410156 1098.738281 2000.671875 1045.570312 2000.671875 C 974.800781 2000.671875 910.71875 1971.980469 864.339844 1925.589844 C 817.949219 1879.210938 789.257812 1815.121094 789.257812 1744.351562 C 789.257812 1673.578125 817.949219 1609.488281 864.328125 1563.109375 C 902.082031 1525.371094 951.550781 1499.339844 1006.808594 1490.949219 L 1004.128906 1465.898438 C 956.089844 1473.019531 911.523438 1492.339844 874.164062 1521.011719 C 826.265625 1557.761719 790.140625 1609.929688 773.652344 1671.480469 C 772.007812 1677.628906 765.683594 1681.28125 759.539062 1679.640625 C 753.398438 1678 749.742188 1671.671875 751.382812 1665.53125 C 769.214844 1598.980469 808.320312 1542.519531 860.191406 1502.71875 C 900.867188 1471.511719 949.390625 1450.539062 1001.671875 1442.941406 L 997.726562 1406.039062 L 900.015625 1406.039062 C 893.644531 1406.039062 888.476562 1400.871094 888.476562 1394.5 L 888.476562 1364.839844 C 888.476562 1353.550781 893.128906 1343.25 900.570312 1335.789062 L 900.597656 1335.769531 L 900.617188 1335.738281 L 900.6875 1335.671875 C 908.144531 1328.261719 918.417969 1323.648438 929.667969 1323.648438 L 1214.070312 1323.648438 C 1225.410156 1323.648438 1235.71875 1328.28125 1243.179688 1335.738281 L 1243.851562 1336.480469 C 1250.898438 1343.890625 1255.269531 1353.890625 1255.269531 1364.839844 L 1255.269531 1382.960938 L 1324 1382.960938 L 1304.710938 1258.558594 L 1249.941406 1253.699219 C 1243.621094 1253.148438 1238.941406 1247.570312 1239.488281 1241.25 C 1240.03125 1234.929688 1245.609375 1230.261719 1251.929688 1230.800781 L 1399.269531 1243.898438 C 1405.589844 1244.449219 1410.269531 1250.03125 1409.730469 1256.351562 C 1409.179688 1262.660156 1403.601562 1267.339844 1397.28125 1266.800781 L 1328.289062 1260.660156 L 1348.609375 1391.671875 C 1348.78125 1392.371094 1348.890625 1393.078125 1348.941406 1393.808594 L 1370.53125 1533 C 1479.570312 1522.730469 1539.359375 1482.210938 1613.808594 1431.761719 C 1677.839844 1388.371094 1752.449219 1337.808594 1876.78125 1292.191406 L 1856.839844 1163.550781 L 1856.710938 1162.898438 C 1855.640625 1156.628906 1859.859375 1150.671875 1866.128906 1149.609375 L 1919.328125 1140.328125 L 1911.570312 1068.320312 C 1910.050781 1054.199219 1902.941406 1042 1892.691406 1033.75 C 1882.421875 1025.488281 1868.980469 1021.140625 1854.839844 1022.660156 C 1852.539062 1022.898438 1850.308594 1023.289062 1848.199219 1023.800781 C 1846.070312 1024.320312 1843.910156 1025 1841.789062 1025.828125 C 1835.871094 1028.109375 1829.199219 1025.160156 1826.910156 1019.238281 C 1824.621094 1013.320312 1827.570312 1006.660156 1833.488281 1004.371094 C 1836.480469 1003.210938 1839.609375 1002.230469 1842.800781 1001.460938 C 1846.019531 1000.671875 1849.238281 1000.101562 1852.398438 999.761719 C 1872.828125 997.570312 1892.25 1003.859375 1907.101562 1015.820312 C 1921.960938 1027.769531 1932.261719 1045.429688 1934.46875 1065.890625 L 1943.339844 1148.191406 C 1944.230469 1154.339844 1940.039062 1160.140625 1933.871094 1161.179688 L 1881.148438 1170.378906 L 1922.691406 1438.238281 C 1930.929688 1436.308594 1939.289062 1434.699219 1947.761719 1433.429688 L 1914.339844 1220.378906 C 1914.121094 1219.480469 1914 1218.53125 1914 1217.558594 C 1914 1211.191406 1919.171875 1206.019531 1925.539062 1206.019531 L 2113.21875 1206.019531 L 2113.21875 1206.058594 C 2118.78125 1206.058594 2123.679688 1210.101562 2124.578125 1215.75 C 2145.761719 1348.011719 2145.421875 1348.769531 2109.230469 1427.890625 L 2101.289062 1445.371094 C 2100.929688 1446.351562 2100.429688 1447.261719 2099.828125 1448.089844 C 2104.921875 1449.890625 2109.96875 1451.828125 2114.960938 1453.898438 C 2152.761719 1469.558594 2187.511719 1492.578125 2216.96875 1522.03125 C 2221.46875 1526.511719 2221.488281 1533.800781 2217.011719 1538.300781 C 2212.539062 1542.800781 2205.238281 1542.820312 2200.738281 1538.351562 C 2173.398438 1511.011719 2141.210938 1489.671875 2106.21875 1475.179688 C 2071.261719 1460.691406 2033.390625 1453.03125 1994.691406 1453.03125 C 1971.109375 1453.03125 1948.191406 1455.828125 1926.238281 1461.121094 L 1931.628906 1495.871094 C 1951.800781 1490.761719 1972.929688 1488.039062 1994.699219 1488.039062 Z M 2159.621094 1579.429688 C 2117.421875 1537.230469 2059.101562 1511.121094 1994.699219 1511.121094 C 1974.128906 1511.121094 1954.191406 1513.789062 1935.191406 1518.789062 L 1957.371094 1661.820312 L 2004.46875 1738.320312 C 2007.800781 1743.71875 2006.121094 1750.808594 2000.730469 1754.140625 C 1995.328125 1757.46875 1988.238281 1755.789062 1984.910156 1750.390625 L 1936.589844 1671.910156 C 1935.800781 1670.648438 1935.25 1669.199219 1935.011719 1667.640625 L 1913.019531 1525.828125 C 1881.460938 1537.628906 1853.148438 1556.058594 1829.769531 1579.429688 C 1787.578125 1621.621094 1761.460938 1679.941406 1761.460938 1744.351562 C 1761.460938 1808.761719 1787.578125 1867.078125 1829.769531 1909.28125 C 1871.980469 1951.480469 1930.289062 1977.589844 1994.699219 1977.589844 C 2059.101562 1977.589844 2117.421875 1951.480469 2159.621094 1909.28125 C 2201.820312 1867.078125 2227.929688 1808.761719 2227.929688 1744.351562 C 2227.929688 1679.949219 2201.820312 1621.621094 2159.621094 1579.429688 Z M 1045.570312 1488.039062 C 1098.738281 1488.039062 1148.199219 1504.300781 1189.21875 1532.109375 C 1193.140625 1534.78125 1196.988281 1537.539062 1200.75 1540.410156 L 1216.941406 1520.988281 C 1213.871094 1518.628906 1210.75 1516.328125 1207.578125 1514.089844 C 1161.789062 1481.820312 1105.898438 1462.851562 1045.570312 1462.851562 C 1039.351562 1462.851562 1033.171875 1463.050781 1027.03125 1463.460938 L 1029.710938 1488.53125 C 1034.960938 1488.210938 1040.25 1488.039062 1045.570312 1488.039062 Z M 1176.328125 1551.140625 C 1139.089844 1525.878906 1094.089844 1511.121094 1045.570312 1511.121094 C 1041.070312 1511.121094 1036.601562 1511.25 1032.171875 1511.5 L 1050.03125 1678.519531 L 1091.121094 1671.828125 L 1186.011719 1558.070312 C 1182.851562 1555.679688 1179.621094 1553.371094 1176.328125 1551.140625 Z M 1218.378906 1555.128906 C 1244.5 1579 1265.671875 1608.230469 1280.148438 1641.050781 L 1305.828125 1636.871094 C 1289.769531 1598.019531 1265.261719 1563.53125 1234.578125 1535.71875 Z M 1256.628906 1644.878906 C 1243.710938 1617.519531 1225.640625 1593.058594 1203.648438 1572.789062 L 1125.738281 1666.191406 Z M 1045.570312 1702.441406 C 1034.050781 1702.441406 1023.628906 1707.050781 1016.101562 1714.511719 L 1015.929688 1714.671875 L 1015.890625 1714.71875 L 1015.71875 1714.878906 C 1008.269531 1722.421875 1003.648438 1732.839844 1003.648438 1744.359375 C 1003.648438 1755.941406 1008.359375 1766.429688 1015.929688 1774 L 1016.410156 1774.511719 C 1023.960938 1781.789062 1034.25 1786.269531 1045.601562 1786.269531 C 1046.539062 1786.269531 1047.460938 1786.390625 1048.328125 1786.601562 L 1274.910156 1823.488281 L 1275.128906 1823.53125 L 1358.5 1837.101562 C 1359.101562 1837.199219 1359.699219 1837.351562 1360.300781 1837.550781 C 1365.269531 1839.21875 1370.441406 1840.519531 1375.75 1841.371094 C 1380.78125 1842.191406 1386.121094 1842.621094 1391.679688 1842.621094 C 1405.480469 1842.621094 1418.609375 1839.78125 1430.53125 1834.660156 L 1413.699219 1805.519531 C 1406.820312 1808 1399.410156 1809.351562 1391.679688 1809.351562 C 1373.78125 1809.351562 1357.539062 1802.058594 1345.75 1790.289062 L 1345.730469 1790.308594 C 1333.96875 1778.550781 1326.691406 1762.289062 1326.691406 1744.359375 C 1326.691406 1726.441406 1333.96875 1710.199219 1345.71875 1698.441406 L 1345.769531 1698.390625 L 1345.960938 1698.210938 C 1357.699219 1686.570312 1373.859375 1679.359375 1391.679688 1679.359375 C 1409.609375 1679.359375 1425.871094 1686.640625 1437.628906 1698.398438 C 1449.390625 1710.160156 1456.671875 1726.421875 1456.671875 1744.359375 C 1456.671875 1762.289062 1449.390625 1778.550781 1437.628906 1790.308594 C 1436.351562 1791.589844 1435.011719 1792.828125 1433.628906 1794 L 1450.460938 1823.148438 C 1454.261719 1820.308594 1457.839844 1817.210938 1461.191406 1813.871094 C 1478.941406 1796.089844 1489.941406 1771.511719 1489.941406 1744.359375 C 1489.941406 1717.199219 1478.949219 1692.628906 1461.191406 1674.851562 C 1443.410156 1657.089844 1418.828125 1646.089844 1391.679688 1646.089844 C 1386.121094 1646.089844 1380.78125 1646.519531 1375.75 1647.339844 C 1370.589844 1648.171875 1365.570312 1649.410156 1360.738281 1651.011719 C 1360.03125 1651.28125 1359.28125 1651.488281 1358.5 1651.609375 L 1324.011719 1657.21875 L 1322.929688 1657.398438 L 1048.308594 1702.109375 C 1047.429688 1702.328125 1046.511719 1702.441406 1045.570312 1702.441406 Z M 999.617188 1698.449219 L 999.644531 1698.429688 L 999.664062 1698.398438 L 999.691406 1698.378906 C 1007.28125 1690.800781 1016.710938 1685.101562 1027.25 1681.988281 L 1009.269531 1513.929688 C 959.398438 1521.730469 914.761719 1545.320312 880.644531 1579.429688 C 838.453125 1621.621094 812.339844 1679.949219 812.339844 1744.351562 C 812.339844 1808.761719 838.445312 1867.078125 880.652344 1909.28125 C 922.851562 1951.480469 981.164062 1977.589844 1045.570312 1977.589844 C 1094.078125 1977.589844 1139.089844 1962.828125 1176.328125 1937.570312 C 1210.808594 1914.199219 1238.699219 1881.820312 1256.628906 1843.828125 L 1044.839844 1809.351562 C 1027.550781 1809.148438 1011.859375 1802.191406 1000.320312 1790.96875 L 999.617188 1790.320312 C 987.855469 1778.558594 980.574219 1762.308594 980.574219 1744.359375 C 980.574219 1726.480469 987.84375 1710.25 999.59375 1698.46875 Z M 1421.320312 1714.71875 C 1413.738281 1707.140625 1403.25 1702.441406 1391.679688 1702.441406 C 1380.089844 1702.441406 1369.601562 1707.128906 1362.019531 1714.691406 C 1354.449219 1722.269531 1349.761719 1732.761719 1349.761719 1744.359375 C 1349.761719 1755.929688 1354.46875 1766.421875 1362.039062 1774 L 1362.019531 1774.019531 L 1362.039062 1774.039062 C 1369.589844 1781.601562 1380.070312 1786.269531 1391.679688 1786.269531 C 1395.191406 1786.269531 1398.601562 1785.839844 1401.871094 1785.03125 L 1381.71875 1750.128906 C 1378.53125 1744.628906 1380.410156 1737.589844 1385.910156 1734.398438 C 1391.398438 1731.210938 1398.449219 1733.089844 1401.628906 1738.589844 L 1421.789062 1773.511719 C 1429.089844 1765.96875 1433.601562 1755.679688 1433.601562 1744.359375 C 1433.601562 1732.78125 1428.890625 1722.289062 1421.320312 1714.71875 Z M 1361.808594 1626.761719 L 1349.609375 1548.039062 C 1349.46875 1547.46875 1349.390625 1546.898438 1349.328125 1546.300781 L 1329.960938 1421.378906 L 1249.339844 1518.019531 C 1284.148438 1549.390625 1311.699219 1588.699219 1329.128906 1633.078125 L 1353.941406 1629.03125 C 1356.53125 1628.199219 1359.148438 1627.429688 1361.808594 1626.761719 Z M 1374.070312 1555.808594 L 1384.53125 1623.230469 C 1386.910156 1623.089844 1389.300781 1623.011719 1391.679688 1623.011719 C 1425.140625 1623.011719 1455.480469 1636.601562 1477.441406 1658.550781 L 1477.480469 1658.601562 L 1477.671875 1658.789062 C 1490.398438 1671.570312 1500.289062 1687.171875 1506.339844 1704.558594 C 1561.421875 1681.03125 1591.558594 1635.949219 1626.398438 1583.839844 C 1675.859375 1509.878906 1734.378906 1422.378906 1883.039062 1357.558594 C 1884.261719 1357.03125 1885.519531 1356.730469 1886.78125 1356.628906 L 1880.378906 1315.390625 C 1761.191406 1359.660156 1688.859375 1408.660156 1626.699219 1450.78125 C 1549.75 1502.921875 1487.898438 1544.820312 1374.070312 1555.808594 Z M 1938.980469 1229.101562 L 1970.460938 1429.800781 L 2083.089844 1429.800781 L 2088.328125 1418.339844 C 2120.75 1347.429688 2121.921875 1344.871094 2103.421875 1229.101562 Z M 1231.710938 1503.289062 L 1312.839844 1406.039062 L 1020.878906 1406.039062 L 1024.570312 1440.5 C 1031.519531 1440.019531 1038.519531 1439.769531 1045.570312 1439.769531 C 1110.789062 1439.769531 1171.261719 1460.308594 1220.828125 1495.25 C 1224.519531 1497.851562 1228.140625 1500.53125 1231.710938 1503.289062 Z M 911.554688 1382.960938 L 1232.191406 1382.960938 L 1232.191406 1364.839844 C 1232.191406 1360.078125 1230.351562 1355.730469 1227.359375 1352.519531 L 1226.859375 1352.058594 C 1223.578125 1348.769531 1219.039062 1346.71875 1214.070312 1346.71875 L 929.667969 1346.71875 C 924.75 1346.71875 920.289062 1348.691406 917.035156 1351.859375 L 916.886719 1352.011719 L 916.839844 1352.058594 C 913.582031 1355.308594 911.554688 1359.839844 911.554688 1364.839844 L 911.554688 1382.960938 "/>
</svg>
